<svg width="135" height="28" viewBox="0 0 135 28" fill="none" xmlns="http://www.w3.org/2000/svg">
<g clip-path="url(#clip0_225_7889)">
<path d="M129.035 0.514343H5.81419C3.08203 0.514343 0.867188 2.72919 0.867188 5.46134V22.0014C0.867188 24.7336 3.08203 26.9484 5.81419 26.9484H129.035C131.768 26.9484 133.982 24.7336 133.982 22.0014V5.46134C133.982 2.72919 131.768 0.514343 129.035 0.514343Z" fill="#F2F740"/>
<path d="M38.1107 17.6225C37.3247 16.8507 36.9316 15.911 36.9316 14.8035C36.9316 13.6959 37.3247 12.7598 38.1107 11.9952C38.9039 11.2235 39.8864 10.8376 41.0582 10.8376C42.2302 10.8376 43.2092 11.2235 43.9952 11.9952C44.7883 12.7598 45.1849 13.6959 45.1849 14.8035C45.1849 15.911 44.7883 16.8507 43.9952 17.6225C43.2092 18.3871 42.2302 18.7693 41.0582 18.7693C39.8864 18.7693 38.9039 18.3871 38.1107 17.6225ZM39.3219 13.035C38.8717 13.4922 38.6466 14.0818 38.6466 14.8035C38.6466 15.5252 38.8717 16.1183 39.3219 16.5827C39.7792 17.0401 40.358 17.2688 41.0582 17.2688C41.7586 17.2688 42.3338 17.0401 42.7839 16.5827C43.2413 16.1183 43.47 15.5252 43.47 14.8035C43.47 14.0818 43.2413 13.4922 42.7839 13.035C42.3338 12.5704 41.7586 12.3382 41.0582 12.3382C40.358 12.3382 39.7792 12.5704 39.3219 13.035Z" fill="#292621"/>
<path d="M45.5332 12.5526V11.052H51.9643V12.5526H49.5527V18.5549H47.945V12.5526H45.5332Z" fill="#292621"/>
<path d="M52.6367 18.5549V11.052H56.1203C57.0134 11.052 57.7352 11.3057 58.2854 11.813C58.8428 12.3132 59.1214 12.9349 59.1214 13.678C59.1214 14.4212 58.8428 15.0465 58.2854 15.5537C57.7352 16.054 57.0134 16.3041 56.1203 16.3041H54.2444V18.5549H52.6367ZM54.2444 14.8035H56.0666C56.5097 14.8035 56.8526 14.6999 57.0956 14.4926C57.3386 14.2854 57.46 14.0138 57.46 13.678C57.46 13.3421 57.3386 13.0706 57.0956 12.8635C56.8526 12.6562 56.5097 12.5526 56.0666 12.5526H54.2444V14.8035Z" fill="#292621"/>
<path d="M60.0098 18.5549V11.052H61.6175V15.3929L61.5104 16.3041H61.6175L64.6723 11.052H66.6552V18.5549H65.0475V14.214L65.1546 13.3029H65.0475L61.9927 18.5549H60.0098Z" fill="#292621"/>
<path d="M67.916 18.5549V11.052H70.3277L72.1498 15.3394H72.4177L74.2399 11.052H76.6515V18.5549H75.0438V13.7852L75.1509 12.8205H75.0438L73.3289 16.84H71.2387L69.5237 12.8205H69.4166L69.5237 13.7852V18.5549H67.916Z" fill="#292621"/>
<path d="M77.2227 18.5549L79.2056 11.052H82.5818L84.5648 18.5549H82.9034L82.4747 16.8935H79.3127L78.8841 18.5549H77.2227ZM79.6878 15.3929H82.0996L81.3492 12.5526H80.4382L79.6878 15.3929Z" fill="#292621"/>
<path d="M84.168 12.5526V11.052H90.5991V12.5526H88.1874V18.5549H86.5796V12.5526H84.168Z" fill="#292621"/>
<path d="M91.2734 18.5549V11.052H92.8812V15.3929L92.7739 16.3041H92.8812L95.9359 11.052H97.9189V18.5549H96.3111V14.214L96.4183 13.3029H96.3111L93.2563 18.5549H91.2734Z" fill="#292621"/>
</g>
<defs>
<clipPath id="clip0_225_7889">
<rect width="134.19" height="26.838" fill="white" transform="translate(0.808594 0.174255)"/>
</clipPath>
</defs>
</svg>
