<svg width="160" height="61" viewBox="0 0 160 61" fill="none" xmlns="http://www.w3.org/2000/svg">
<path d="M10.2384 60.4937L17.8284 33.2254L0 33.1717L9.37098 0L118.428 0.0536968L110.941 26.8137H160L150.711 60.4973L10.2384 60.4937Z" fill="black"/>
<path d="M47.8113 12.0284L46.5101 16.3243H40.008L41.3092 12.0284H47.8113ZM37.2387 26.6166L38.7247 21.1894H45.7849C49.5034 21.1894 51.7324 19.5033 52.8452 15.9484L53.4033 13.89C54.7044 9.40071 52.6603 6.4043 47.829 6.4043H17.3307L11.5182 26.6166H37.1676H37.2387Z" fill="#0080FF"/>
<path d="M64.1651 12.0297H66.5825V18.3948H60.635L64.1651 12.0297ZM55.9886 26.6287L57.8479 23.26H66.5825V26.6287H72.3416V6.60254H61.1931L49.4865 26.6287H55.9886Z" fill="#0080FF"/>
<path d="M84.0478 12.0279H90.365L89.2523 16.3239H82.7431L84.0478 12.0279ZM95.5696 15.9659L96.1277 14.0935C97.4288 9.41457 95.3847 6.60791 90.5534 6.60791H79.7747L74.012 26.6341H79.9595L81.4455 21.2069H85.1641L86.8349 26.6341H92.9673L91.1116 20.831C93.3406 20.0756 94.8301 18.5792 95.5696 15.9587V15.9659Z" fill="#0080FF"/>
<path d="M101.144 26.6287L106.917 6.60254H100.959L95.1857 26.6287H101.144Z" fill="#0080FF"/>
<path d="M62.6433 33.9211L55.7643 41.9689L53.1656 33.9211H27.335L21.7607 53.9437H47.403L50.5634 42.9032L52.6075 49.0786H56.3225L61.9003 42.5309L58.7399 53.9437H64.6874L70.2616 33.9211H62.6433Z" fill="#F8FF13"/>
<path d="M77.695 45.7099L81.2251 39.3448H83.639V45.7063L77.695 45.7099ZM78.2531 33.9211L66.543 53.9437H73.2335L75.0927 50.575H83.8274V53.9437H89.5865V33.9211H78.2531Z" fill="#F8FF13"/>
<path d="M109.658 39.7242L111.144 33.9211H93.1163L91.4454 39.7242H97.9475L94.037 53.9437H99.981L103.891 39.7242H109.658Z" fill="#F8FF13"/>
<path d="M117.461 39.7242H126.566L128.247 33.9211H118.578C114.859 33.9211 112.63 35.6073 111.514 39.1622L109.47 46.4581C108.169 51.1371 110.213 53.9437 115.044 53.9437H122.477L124.152 48.1442H115.044L117.461 39.7242Z" fill="#F8FF13"/>
<path d="M143.477 33.9211L141.433 41.2206H134.742L136.787 33.9211H130.843L125.08 53.9437H131.027L133.072 46.834H139.947L137.903 53.9437H143.85L149.425 33.9211H143.477Z" fill="#F8FF13"/>
</svg>
