<svg width="368" height="77" viewBox="0 0 368 77" fill="none" xmlns="http://www.w3.org/2000/svg">
<path d="M332.948 73.9629H336.495L340.279 60.7201H344.204L345.15 57.4094H337.677L332.948 73.9629Z" fill="#F8FF13"/>
<path d="M342.185 73.9629H345.732L347.482 67.8145H349.894C352.046 67.8145 353.323 66.8213 354.104 64.1491L354.86 61.4769C355.499 59.254 354.695 57.4094 352.117 57.4094H346.915L342.185 73.9629ZM348.381 64.6693L349.54 60.6492H350.935C351.361 60.6492 351.479 60.862 351.361 61.2877L350.58 64.0308C350.462 64.4565 350.296 64.6693 349.918 64.6693H348.381Z" fill="#F8FF13"/>
<path d="M353.547 73.9629H357.094L358.986 67.3415H361.256L359.365 73.9629H362.912L367.641 57.4094H364.094L362.202 64.0308H359.932L361.824 57.4094H358.277L353.547 73.9629Z" fill="#F8FF13"/>
<path d="M201.132 76.5324H208.053C217.743 76.5324 223.493 72.0602 226.901 60.0276L229.776 50.0183C231.16 45.1201 230.308 41.2867 226.901 38.7312C231.373 36.6015 234.248 33.0876 235.739 27.657L237.975 19.2449C240.744 9.23556 237.23 0.929932 225.623 0.929932H219.234C209.544 0.929932 203.794 5.40219 200.387 17.4347L198.044 25.8468H212.1L214.123 18.4995C214.868 15.8375 215.827 14.3467 218.382 14.3467H220.192C222.961 14.3467 223.813 15.6245 223.067 18.2866L220.512 27.1246C219.767 29.7867 218.808 31.2774 216.253 31.2774H210.503L206.35 45.972H211.78C214.549 45.972 215.294 47.2498 214.549 49.9118L211.993 58.9628C211.248 61.6249 210.29 63.1156 207.734 63.1156H205.391C202.623 63.1156 201.771 61.8378 202.516 59.1758L205.178 49.9118H191.123L188.78 58.2174C185.905 68.2268 189.526 76.5324 201.132 76.5324Z" fill="#F8FF13"/>
<path d="M249.201 76.5324H256.868C266.558 76.5324 272.308 72.0602 275.716 60.0276L287.322 19.2449C290.197 9.23556 286.577 0.929932 274.97 0.929932H267.303C257.614 0.929932 251.863 5.40219 248.456 17.4347L236.849 58.2174C233.974 68.2268 237.595 76.5324 249.201 76.5324ZM254.951 62.6897C252.183 62.6897 251.331 61.4119 252.076 58.7499L263.47 18.9255C264.215 16.2634 265.174 14.7726 267.729 14.7726H269.22C271.989 14.7726 272.84 16.0504 272.095 18.7125L260.701 58.5369C259.956 61.1989 258.998 62.6897 256.442 62.6897H254.951Z" fill="#F8FF13"/>
<path d="M298.179 76.5324H305.846C315.536 76.5324 321.286 72.0602 324.693 60.0276L336.3 19.2449C339.175 9.23556 335.554 0.929932 323.948 0.929932H316.281C306.591 0.929932 300.841 5.40219 297.434 17.4347L285.827 58.2174C282.952 68.2268 286.573 76.5324 298.179 76.5324ZM303.929 62.6897C301.161 62.6897 300.309 61.4119 301.054 58.7499L312.448 18.9255C313.193 16.2634 314.151 14.7726 316.707 14.7726H318.198C320.966 14.7726 321.818 16.0504 321.073 18.7125L309.679 58.5369C308.934 61.1989 307.976 62.6897 305.42 62.6897H303.929Z" fill="#F8FF13"/>
<path d="M6.62671 47.1349H15.6899L20.5235 30.217H28.0762L30.493 21.7581H22.9404L25.3572 13.2992H34.7829L37.1997 4.84021H18.7109L6.62671 47.1349Z" fill="white"/>
<path d="M29.9336 47.1349H38.9968L43.7096 30.7004H45.4618V47.1349H54.3437L54.102 29.9149C57.0023 28.7065 58.9357 25.9876 60.265 21.3351L62.0172 15.2326C63.6486 9.55305 61.5943 4.84021 55.0084 4.84021H42.0178L29.9336 47.1349ZM45.8848 23.0269L48.7246 13.1179H51.9873C53.0749 13.1179 53.377 13.6617 53.0749 14.7493L51.2018 21.3956C50.8997 22.4831 50.4768 23.0269 49.5101 23.0269H45.8848Z" fill="white"/>
<path d="M58.846 47.1349H77.0328L79.4496 38.676H70.2052L72.622 30.217H81.2018L83.6187 21.7581H75.0389L77.4557 13.2992H86.7001L89.117 4.84021H70.9302L58.846 47.1349Z" fill="white"/>
<path d="M83.0971 47.1349H101.284L103.701 38.676H94.4562L96.873 30.217H105.453L107.87 21.7581H99.2899L101.707 13.2992H110.951L113.368 4.84021H95.1813L83.0971 47.1349Z" fill="white"/>
<path d="M107.65 47.1349H122.635C128.133 47.1349 131.396 44.5972 133.329 37.7697L134.598 33.3589C135.504 30.2775 135.263 27.6189 133.812 25.8667C135.988 24.2958 137.619 21.6373 138.707 17.7099L139.432 15.2326C141.063 9.55305 139.009 4.84021 132.423 4.84021H119.734L107.65 47.1349ZM123.722 21.9394L126.26 13.1179H129.885C130.973 13.1179 131.275 13.6617 130.973 14.7493L129.402 20.308C129.1 21.3956 128.677 21.9394 127.71 21.9394H123.722ZM118.828 39.0989L121.426 30.0358H125.051C126.139 30.0358 126.441 30.5796 126.139 31.6671L124.508 37.4676C124.206 38.5551 123.783 39.0989 122.816 39.0989H118.828Z" fill="white"/>
<path d="M136.437 47.1349H154.624L157.041 38.676H147.797L150.213 30.217H158.793L161.21 21.7581H152.63L155.047 13.2992H164.292L166.708 4.84021H148.522L136.437 47.1349Z" fill="white"/>
<path d="M163.995 47.1349H173.058L182.726 13.2992H189.976L192.393 4.84021H168.829L166.412 13.2992H173.662L163.995 47.1349Z" fill="white"/>
<path d="M0.463379 72.4519H3.68262L5.57218 65.7801H7.97495L6.08539 72.4519H9.28131L13.9469 56.1224H10.751L8.83808 62.7942H6.43531L8.3482 56.1224H5.12895L0.463379 72.4519Z" fill="white"/>
<path d="M11.1541 72.4519H14.28L15.3531 69.4893H17.9892L17.4293 72.4519H20.4852L23.3312 56.1224H17.5459L11.1541 72.4519ZM16.4262 66.55L19.1322 59.0617H19.972L18.549 66.55H16.4262Z" fill="white"/>
<path d="M25.5909 72.4519H28.8102L32.6126 59.1084H35.0154L31.213 72.4519H34.4089L39.0744 56.1224H30.2565L25.5909 72.4519Z" fill="white"/>
<path d="M36.9815 72.4519H43.6533L44.4931 69.4659H40.9939L42.0436 65.7801H45.3095L46.1727 62.7942H42.9068L43.9565 59.1084H47.4557L48.3188 56.1224H41.6471L36.9815 72.4519Z" fill="white"/>
<path d="M45.98 72.4519H49.1993L50.9722 66.2467H53.235C55.3578 66.2467 56.6175 65.2669 57.364 62.6309L58.0872 60.1348C58.717 57.942 57.9239 56.1224 55.3812 56.1224H50.6456L45.98 72.4519ZM51.7887 63.3307L53.025 59.0617H54.448C54.9613 59.0617 55.1012 59.3183 54.9613 59.8082L54.1681 62.5609C54.0281 63.0741 53.8415 63.3307 53.375 63.3307H51.7887Z" fill="white"/>
<path d="M56.7783 72.4519H70.7283L75.3939 56.1224H72.1747L68.3722 69.4659H66.2027L70.0285 56.1224H66.8092L63.0068 69.4659H60.8373L64.6631 56.1224H61.4439L56.7783 72.4519Z" fill="white"/>
<path d="M73.4112 72.4519H76.3972L81.8092 63.6573H81.9259L80.5729 67.8563L79.2665 72.4519H82.3458L87.0114 56.1224H84.0254L78.6133 64.917H78.4967L79.8497 60.6947L81.1561 56.1224H78.0768L73.4112 72.4519Z" fill="white"/>
<path d="M93.7981 55.1893H95.4777C96.7374 55.1893 97.4839 54.6061 97.9038 53.0665L98.0671 52.5066H95.921L95.851 52.8332C95.7577 53.1831 95.641 53.3697 95.3144 53.3697H94.7312C94.3813 53.3697 94.2647 53.2531 94.358 52.8565L94.4513 52.5066H92.3285L92.2352 52.8332C91.8619 54.1162 92.3051 55.1893 93.7981 55.1893ZM85.1435 72.4519H88.1295L93.5415 63.6573H93.6582L92.3051 67.8563L90.9988 72.4519H94.0781L98.7436 56.1224H95.7577L90.3456 64.917H90.229L91.582 60.6947L92.8883 56.1224H89.8091L85.1435 72.4519Z" fill="white"/>
<path d="M98.2906 74.7847H100.46L102.046 72.4519H107.552V74.7847H109.698L111.238 69.4659H109.745L113.57 56.1224H105.382L103.143 63.3774C102.373 65.8735 101.626 68.1596 101.02 69.4659H99.8069L98.2906 74.7847ZM103.983 69.4659C104.916 67.6464 105.732 65.2903 106.339 63.3774L107.645 59.085H109.511L106.549 69.4659H103.983Z" fill="white"/>
<path d="M112 72.4519H118.671L119.511 69.4659H116.012L117.062 65.7801H120.328L121.191 62.7942H117.925L118.975 59.1084H122.474L123.337 56.1224H116.665L112 72.4519Z" fill="white"/>
<path d="M120.998 72.4519H124.217L128.02 59.1084H130.423L126.62 72.4519H129.816L134.482 56.1224H125.664L120.998 72.4519Z" fill="white"/>
<path d="M136.098 72.5686H138.034C140.157 72.5686 141.417 71.5888 142.163 68.9527L144.706 60.0182C145.336 57.8253 144.543 56.0058 142 56.0058H140.064C137.941 56.0058 136.681 56.9855 135.935 59.6216L133.392 68.5562C132.762 70.749 133.555 72.5686 136.098 72.5686ZM137.031 69.6292C136.518 69.6292 136.355 69.396 136.494 68.9061L139.131 59.7149C139.247 59.225 139.457 58.9451 139.924 58.9451H141.09C141.603 58.9451 141.743 59.1784 141.603 59.6916L138.991 68.8594C138.851 69.3493 138.664 69.6292 138.197 69.6292H137.031Z" fill="white"/>
<path d="M146.979 72.5686H148.612C150.735 72.5686 151.995 71.5888 152.741 68.9527L153.254 67.0865C153.581 65.9901 153.488 64.987 152.834 64.3338C153.744 63.9372 154.281 63.1441 154.724 61.6278L155.167 60.0182C155.797 57.8253 155.004 56.0058 152.461 56.0058H150.968C148.845 56.0058 147.609 56.9855 146.862 59.6216L146.233 61.9544H149.242L149.872 59.7149C150.012 59.2017 150.198 58.9451 150.665 58.9451H151.621C152.158 58.9451 152.298 59.1784 152.158 59.6682L151.505 62.0244C151.365 62.4909 151.178 62.7942 150.712 62.7942H148.892L148.029 65.7568H149.685C150.198 65.7568 150.362 65.9901 150.222 66.48L149.545 68.8594C149.429 69.326 149.219 69.6292 148.752 69.6292H147.772C147.259 69.6292 147.096 69.3726 147.236 68.8827L147.889 66.5966H144.833L144.273 68.5562C143.643 70.749 144.436 72.5686 146.979 72.5686Z" fill="white"/>
<path d="M154.079 72.4519H157.065L162.477 63.6573H162.594L161.241 67.8563L159.934 72.4519H163.014L167.679 56.1224H164.693L159.281 64.917H159.165L160.518 60.6947L161.824 56.1224H158.745L154.079 72.4519Z" fill="white"/>
<path d="M167.631 72.4519H170.827L174.653 59.1084H177.382L178.245 56.1224H169.544L168.704 59.1084H171.433L167.631 72.4519Z" fill="white"/>
</svg>
